<?xml version="1.0" encoding="utf-8"?>
<svg viewBox="0 0 175.216 175.552" xmlns="http://www.w3.org/2000/svg">
  <defs>
    <filter id="a" width="1.115" height="1.114" x="-.057" y="-.057" color-interpolation-filters="sRGB">
      <feGaussianBlur stdDeviation="3.531"/>
    </filter>
    <linearGradient id="b" x1="85.915" x2="86.535" y1="32.567" y2="137.092" gradientUnits="userSpaceOnUse" gradientTransform="matrix(1, 0, 0, -1, 0, 172.768176)">
      <stop offset="0" stop-color="#57d163"/>
      <stop offset="1" stop-color="#23b33a"/>
    </linearGradient>
  </defs>
  <path fill="#b3b3b3" d="M 54.532 37.102 L 56.767 35.778 C 66.154 30.207 76.917 27.26 87.893 27.255 L 87.916 27.255 C 121.623 27.255 149.055 54.681 149.069 88.39 C 149.075 104.725 142.72 120.086 131.174 131.641 C 119.736 143.151 104.167 149.607 87.94 149.569 C 54.207 149.569 26.774 122.146 26.762 88.439 C 26.745 76.929 29.987 65.649 36.111 55.904 L 37.566 53.592 L 31.387 31.034 L 54.532 37.102 Z M 13.721 13.558 L 24.16 51.672 C 17.722 62.826 14.335 75.48 14.339 88.444 C 14.356 129 47.36 161.994 87.917 161.994 C 107.598 161.984 126.071 154.325 139.964 140.422 C 153.857 126.519 161.501 108.039 161.494 88.385 C 161.476 47.832 128.467 14.832 87.916 14.832 L 87.884 14.832 C 75.571 14.837 63.472 17.926 52.725 23.786 L 13.721 13.558 Z M 13.721 13.558" filter="url(#a)" transform="matrix(-1, 0, 0, -1, 175.215014, 175.552005)"/>
  <path fill="#fff" d="M 12.966 12.802 L 23.405 50.916 C 16.956 62.097 13.568 74.78 13.584 87.688 C 13.601 128.244 46.605 161.238 87.162 161.238 C 106.843 161.228 125.316 153.569 139.209 139.666 C 153.102 125.763 160.746 107.283 160.739 87.629 C 160.721 47.076 127.712 14.076 87.161 14.076 L 87.129 14.076 C 74.816 14.081 62.717 17.17 51.97 23.03 L 12.966 12.802 Z" transform="matrix(-1, 0, 0, -1, 173.705004, 174.039996)"/>
  <path fill="url(#linearGradient1780)" d="M87.184 25.227c-33.733 0-61.166 27.423-61.178 61.13a60.98 60.98 0 0 0 9.349 32.535l1.455 2.312-6.179 22.559 23.146-6.069 2.235 1.324c9.387 5.571 20.15 8.518 31.126 8.524h.023c33.707 0 61.14-27.426 61.153-61.135a60.75 60.75 0 0 0-17.895-43.251 60.75 60.75 0 0 0-43.235-17.929z"/>
  <path fill="url(#b)" d="M 87.184 147.541 C 53.451 147.541 26.018 120.118 26.006 86.411 C 25.989 74.901 29.231 63.621 35.355 53.876 L 36.81 51.563 L 30.631 29.005 L 53.777 35.074 L 56.012 33.75 C 65.399 28.179 76.162 25.233 87.138 25.227 L 87.161 25.227 C 120.868 25.227 148.301 52.653 148.314 86.362 C 148.365 102.59 141.922 118.165 130.419 129.613 C 118.98 141.124 103.412 147.579 87.184 147.541 L 87.184 147.541 Z" transform="matrix(-1, 0, 0, -1, 174.320224, 172.768176)"/>
  <path fill="#fff" fill-rule="evenodd" d="M 68.772 55.603 C 67.394 52.542 65.944 52.48 64.635 52.427 L 61.111 52.384 C 59.885 52.384 57.893 52.844 56.209 54.684 C 54.525 56.524 49.774 60.971 49.774 70.016 C 49.774 79.061 56.362 87.801 57.28 89.029 C 58.198 90.257 69.998 109.41 88.685 116.779 C 104.214 122.903 107.374 121.685 110.746 121.379 C 114.118 121.073 121.623 116.932 123.154 112.639 C 124.685 108.346 124.686 104.668 124.227 103.899 C 123.768 103.13 122.542 102.673 120.702 101.753 C 118.862 100.833 109.825 96.386 108.14 95.772 C 106.455 95.158 105.23 94.853 104.003 96.693 C 102.776 98.533 99.257 102.672 98.184 103.899 C 97.111 105.126 96.04 105.28 94.2 104.361 C 92.36 103.442 86.44 101.5 79.416 95.237 C 73.951 90.364 70.262 84.346 69.188 82.507 C 68.114 80.668 69.074 79.672 69.996 78.756 C 70.821 77.932 71.834 76.609 72.755 75.536 C 73.676 74.463 73.979 73.696 74.591 72.471 C 75.203 71.246 74.898 70.17 74.438 69.251 C 73.978 68.332 70.406 59.24 68.772 55.604" transform="matrix(-1, 0.000022, -0.000022, -1, 174.269961, 174.065387)"/>
</svg>